<svg width="43" height="31" viewBox="0 0 43 31" fill="none" xmlns="http://www.w3.org/2000/svg">
<path d="M21.0006 20.5C21.0006 26.0228 16.5234 30.5 11.0006 30.5C5.47772 30.5 1.39412 26.0088 1.00057 20.5C0.0718485 7.5 11.9774 0 17.5002 0C10.5002 8.5 13.0445 8.5 18.0006 13.3586C19.8519 15.1735 21.0006 17.7026 21.0006 20.5Z" fill="black"/>
<path d="M42.0514 20.5C42.0514 26.0228 37.5742 30.5 32.0514 30.5C26.5285 30.5 22.4449 26.0088 22.0514 20.5C21.1226 7.5 33.0281 0 38.551 0C31.551 8.5 34.0952 8.5 39.0514 13.3586C40.9027 15.1735 42.0514 17.7026 42.0514 20.5Z" fill="black"/>
</svg>
