<svg width="42" height="31" viewBox="0 0 42 31" fill="none" xmlns="http://www.w3.org/2000/svg">
<path d="M21.0502 10C21.0502 4.47715 25.5274 0 31.0502 0C36.5731 0 40.6567 4.49119 41.0502 10C41.9789 23 30.0734 30.5 24.5506 30.5C31.5506 22 29.0063 22 24.0502 17.1414C22.1988 15.3265 21.0502 12.7974 21.0502 10Z" fill="black"/>
<path d="M-0.000572205 10C-0.000572205 4.47715 4.47658 0 9.99943 0C15.5223 0 19.6059 4.49119 19.9994 10C20.9282 23 9.02265 30.5 3.4998 30.5C10.4998 22 7.95554 22 2.99943 17.1414C1.14807 15.3265 -0.000572205 12.7974 -0.000572205 10Z" fill="black"/>
</svg>
